<svg width="200" xmlns="http://www.w3.org/2000/svg" height="40" viewBox="-619.5 420.5 200 40" xmlns:xlink="http://www.w3.org/1999/xlink" enable-background="new -619.5 420.5 200 40">
<g fill="#fff">
<path d="m-601.467,449.671l-7.071-7.071-.707,.707c-.354,.354-.466,.592-.494,.732l-1.392,7.049c-.066,.328 .048,.656 .285,.892 .237,.236 .581,.334 .909,.268l7.074-1.417c.125-.025 .337-.099 .691-.453l.705-.707z"/>
<path d="m-587.178,433.261l-4.95-4.95c-.586-.586-1.536-.586-2.121,0l-12.875,12.874 7.071,7.071 12.874-12.874c.587-.586 .587-1.535 .001-2.121z"/>
<path d="m-555.839,448.86l9.399-9.399c.586-.586 .586-1.536 0-2.121l-9.899-9.899c-.586-.586-1.536-.586-2.121,0l-9.399,9.399 12.02,12.02z"/>
<path d="m-569.274,438.253l-3.182,3.182c-.586,.586-.586,1.536 0,2.121l9.899,9.899c.586,.586 1.536,.586 2.121,0l3.182-3.182-12.02-12.02z"/>
<circle cx="-519.5" cy="440.5" r="2.5"/>
<circle cx="-479.5" cy="440.5" r="7.5"/>
<circle cx="-439.5" cy="440.5" r="12.5"/>
</g>
</svg>
