<?xml version="1.0" encoding="utf-8"?>
<!-- Generator: Adobe Illustrator 17.0.2, SVG Export Plug-In . SVG Version: 6.00 Build 0)  -->
<!DOCTYPE svg PUBLIC "-//W3C//DTD SVG 1.1//EN" "http://www.w3.org/Graphics/SVG/1.1/DTD/svg11.dtd" [
	<!ENTITY st0 "fill:#362E2B;">
	<!ENTITY st1 "fill:#FFFFFF;">
	<!ENTITY st2 "fill:none;stroke:#362E2B;stroke-width:4;stroke-linecap:round;stroke-miterlimit:10;">
	<!ENTITY st3 "fill:none;stroke:#362E2B;stroke-width:2;stroke-linecap:round;stroke-miterlimit:10;">
	<!ENTITY st4 "fill:none;stroke:#362E2B;stroke-width:3;stroke-miterlimit:10;">
	<!ENTITY st5 "fill:none;stroke:#362E2B;stroke-miterlimit:10;">
	<!ENTITY st6 "fill:url(#SVGID_1_);">
	<!ENTITY st7 "fill:url(#SVGID_2_);">
	<!ENTITY st8 "opacity:0.3;fill:url(#SVGID_3_);">
	<!ENTITY st9 "opacity:0.3;fill:url(#SVGID_4_);">
	<!ENTITY st10 "fill:#26201E;">
	<!ENTITY st11 "fill:#51C1F7;">
	<!ENTITY st12 "opacity:0.2;">
	<!ENTITY st13 "fill:url(#SVGID_5_);">
	<!ENTITY st14 "fill:url(#SVGID_6_);">
	<!ENTITY st15 "opacity:0.3;fill:url(#SVGID_7_);">
	<!ENTITY st16 "opacity:0.3;fill:url(#SVGID_8_);">
	<!ENTITY st17 "fill:#9E794B;">
	<!ENTITY st18 "fill:#CFAA76;stroke:#B79460;stroke-width:4;stroke-miterlimit:10;">
	<!ENTITY st19 "opacity:0.8;fill:#B79460;">
	<!ENTITY st20 "fill:#EB8F2C;">
	<!ENTITY st21 "fill:#F4E089;">
	<!ENTITY st22 "opacity:0.3;">
]>
<svg version="1.1" xmlns="http://www.w3.org/2000/svg" xmlns:xlink="http://www.w3.org/1999/xlink" x="0px" y="0px" width="446px"
	 height="746px" viewBox="0 0 446 746" style="enable-background:new 0 0 446 746;" xml:space="preserve">
<g id="レイヤー_2">
	<path style="&st0;" d="M371.307,473.04c-3.928-61.454-37.882-125.93-37.882-125.93c-0.281-3.823-1.403-17.264-1.403-17.264
		c4.209-0.735,12.206,1.145,14.732,1.586c2.525,0.441,2.946-0.016,2.946-0.016c3.367-2.646-14.872-31.617-14.872-31.617
		c21.747-8.968,22.694-5.223,23.15-7.501c0.784-3.914-27.919-16.908-27.919-16.908c29.32,5.578,38.781,6.654,42.708,6.871
		c2.8,0.154,4.146-1.461,4.146-1.461c5.612-5.293-23.698-35.985-23.698-35.985c26.71-13.655,26.805-14.4,25.683-18.811
		c-1.122-4.411-33.798-22.037-33.798-22.037c-8.418-43.518-35.046-87.152-35.046-87.152c0.14-17.495-0.922-67.42-21.687-70.066
		c-20.765-2.646-39.586,41.879-39.586,41.879c-7.07-1.222-14.857-2.021-21.042-2.041c-0.171-0.002-0.346-0.002-0.52-0.003
		c-0.161,0.001-0.324,0.001-0.483,0.002c-6.491,0.015-14.679,0.815-22.111,2.042c0,0-19.723-44.525-41.482-41.879
		c-21.759,2.646-22.873,52.571-22.726,70.066c0,0-27.903,43.634-36.724,87.152c0,0-34.24,17.627-35.416,22.037
		c-1.176,4.411-1.077,5.155,26.912,18.811c0,0-30.714,30.692-24.833,35.985c0,0,1.411,1.615,4.345,1.461
		c4.115-0.216,14.028-1.293,44.752-6.872c0,0-30.077,12.992-29.256,16.906c0.478,2.279,1.471-1.471,24.259,7.497
		c0,0-19.112,28.963-15.584,31.609c0,0,0.441,0.441,3.088,0c2.646-0.441,11.027-2.352,15.437-1.617c0,0-1.176,13.379-1.47,17.201
		c0,0-35.579,64.601-39.695,126.055C76.233,473.04,37,536,99,667h116.5h24h110.08C408.748,536,371.307,473.04,371.307,473.04z"/>
	<g>
		<path style="&st1;" d="M157.204,64.21c-0.051,0.124-0.341,1.002-0.788,2.496c-1.981,6.614-7.063,25.306-8.367,44.153
			c0,0,19.474-13.079,29.646-14.533c0,0,1.453-14.678-17.439-33.57C160.256,62.757,158.221,61.766,157.204,64.21z"/>
		<path style="&st1;" d="M291.565,64.21c0.051,0.124,0.341,1.002,0.788,2.496c1.981,6.614,7.063,25.306,8.367,44.153
			c0,0-19.474-13.079-29.646-14.533c0,0-1.453-14.678,17.439-33.57C288.514,62.757,290.549,61.766,291.565,64.21z"/>
		<path style="&st1;" d="M209.338,180.104c-0.672,0.298-49.963,32.999-46.709,71.342c0,0-3.718,24.865,65.068,24.168
			c68.786-0.697,56.99-30.99,51.771-47.964c0,0-1.337-4.028-4.885-9.858c-2.078-3.415-7.698-9.054-29.457-29.089
			C237.463,181.647,225.605,172.9,209.338,180.104z"/>
		<path style="&st1;" d="M359.239,413.667c-9.17-11-38.888-24.667-38.888-24.667c6.641-2.667,10.45-1.333,10.45-1.333
			c-11.384-7.333-38.699-12.85-40.581-11.333c6.506-6,26.44-13.333,26.44-13.333c-9.487-2-41.306,2-42.571,2.333
			s24.586-32.667,24.586-32.667L228,328l-74.5,4.667c0,0,27.25,33,25.917,32.667C178.083,365,144.542,361,134.542,363
			c0,0,21.012,7.333,27.87,13.333c-1.984-1.516-30.777,4-42.777,11.333c0,0,4.016-1.333,11.016,1.333
			c0,0-31.326,13.667-40.992,24.667c0,0-9.33,27.667-10.996,57.333c0,0,34.67-3,69.337,73h80h75.893c32.887-76,65.778-73,65.778-73
			C368.089,441.333,359.239,413.667,359.239,413.667z"/>
	</g>
	<g>
		<path style="&st1;" d="M176.804,152.915c0,0,14.408-2.324,13.711,16.964s-2.324,30.907-5.577,38.344
			c-3.253,7.436-20.915,14.64-28.351-5.577c0,0-0.93-13.246,1.162-19.753c2.091-6.507,6.507-18.823,7.669-21.147
			S171.496,154.588,176.804,152.915z"/>
		<path style="&st0;" d="M180.454,160.366c0,0-9.937-2.533-15.685,19.679s0,27.57,4.579,29.031
			c4.579,1.461,10.034,0.441,15.49-24.756C184.838,184.32,189.807,161.828,180.454,160.366z"/>
	</g>
	<g>
		<path style="&st1;" d="M270.258,155.915c0,0-14.39-2.324-13.694,16.964c0.696,19.288,2.321,30.907,5.57,38.344
			c3.249,7.436,20.889,14.64,28.316-5.577c0,0,0.928-13.246-1.161-19.753c-2.089-6.507-6.499-18.823-7.659-21.147
			C280.47,162.422,275.56,157.588,270.258,155.915z"/>
		<path style="&st0;" d="M266.613,163.366c0,0,9.925-2.533,15.665,19.679c5.741,22.212,0,27.57-4.573,29.031
			c-4.573,1.461-10.022,0.441-15.471-24.756C262.234,187.32,257.272,164.828,266.613,163.366z"/>
	</g>
	<path style="&st0;" d="M116,346v11c0,0,31.831-21.311,33.569-21.311l2.317,38.811l31.281-22.012l12.454,22.012l15.93-15.64
		l11.973,19.406l15.253-19.116l16.509,17.378l11.006-25.198L300.47,373c0,0,2.896-21.67,0-37.311l34.756,20.128
		c0,0-0.614-19.622-3.203-26.971s-68.047-26.175-97.011-25.017s-117.613,24.954-117.613,24.954L116,346z"/>
	<g>
		<g>
			<line style="&st2;" x1="223" y1="206" x2="223" y2="217"/>
			<line style="&st2;" x1="210.075" y1="226.56" x2="222.047" y2="217.289"/>
			<line style="&st2;" x1="224.38" y1="217.289" x2="238.684" y2="228.329"/>
		</g>
		<path style="&st3;" d="M193.749,243.1c0,0,15.704,20.369,30.631,20.369c14.927,0,28.454-18.658,28.921-19.591"/>
	</g>
	<g>
		<path style="&st4;" d="M139.696,492.609c0,0,14.917,81.23,39.51,104.334"/>
		<line style="&st5;" x1="207.5" y1="499" x2="215.204" y2="587.433"/>
		<linearGradient id="SVGID_1_" gradientUnits="userSpaceOnUse" x1="174" y1="503.2892" x2="174" y2="514.1179">
			<stop  offset="0" style="stop-color:#FFFFFF"/>
			<stop  offset="1" style="stop-color:#FFFFFF;stop-opacity:0"/>
		</linearGradient>
		<rect x="131" y="477" style="&st6;" width="86" height="37"/>
	</g>
	<g>
		<path style="&st4;" d="M305.539,495.609c0.027-0.162-13.689,81.207-36.314,104.334"/>
		<line style="&st5;" x1="243.22" y1="502" x2="236.139" y2="590.433"/>
		
			<linearGradient id="SVGID_2_" gradientUnits="userSpaceOnUse" x1="-844.3226" y1="507.7103" x2="-844.3226" y2="519.1243" gradientTransform="matrix(-0.8785 0 0 1 -467.7503 0)">
			<stop  offset="0" style="stop-color:#FFFFFF"/>
			<stop  offset="1" style="stop-color:#FFFFFF;stop-opacity:0"/>
		</linearGradient>
		<rect x="234" y="480" style="&st7;" width="80" height="39"/>
	</g>
	<linearGradient id="SVGID_3_" gradientUnits="userSpaceOnUse" x1="323.4454" y1="494.0879" x2="300.4099" y2="543.2127">
		<stop  offset="0" style="stop-color:#FFFFFF"/>
		<stop  offset="1" style="stop-color:#000000"/>
	</linearGradient>
	<path style="&st8;" d="M318.283,515.096c7.415-12.933,15.406-21.923,20.056-26.763c-9.239,3.685-33.778,20.019-33.778,20.019
		l-8.441,35.626l7.773,0.022C305.498,539.749,309.562,530.307,318.283,515.096z"/>
	
		<linearGradient id="SVGID_4_" gradientUnits="userSpaceOnUse" x1="-423.5546" y1="494.0879" x2="-446.5901" y2="543.2127" gradientTransform="matrix(-1 0 0 1 -297.5408 0)">
		<stop  offset="0" style="stop-color:#FFFFFF"/>
		<stop  offset="1" style="stop-color:#000000"/>
	</linearGradient>
	<path style="&st9;" d="M131.176,515.096c-7.415-12.933-15.406-21.923-20.056-26.763c9.239,3.685,33.778,20.019,33.778,20.019
		l8.441,35.626L145.566,544C143.961,539.749,139.897,530.307,131.176,515.096z"/>
	<g>
		<path style="&st10;" d="M118.375,292.375c-6.5-2.625-26.5-0.25-27.552,0.75l24.052,6.125
			C114.875,299.25,117.783,292.162,118.375,292.375z"/>
		<path style="&st10;" d="M95.191,244.814c0.014-0.012-0.001-0.035-0.006-0.054C95.121,244.85,95.108,244.884,95.191,244.814z"/>
		<path style="&st10;" d="M95.184,244.76c0.526-0.749,5.468-6.368,5.468-6.368c-15.174-3.646-32.162-10.575-32.162-10.575
			C67.956,233.166,94.904,243.75,95.184,244.76z"/>
		<path style="&st10;" d="M118.375,321.283c-0.473,0-18.405,8.781-18.552,9.22l17.575-1.719
			C117.398,328.784,118.848,321.283,118.375,321.283z"/>
		<polygon style="&st10;" points="117.536,355.974 149.58,334.893 140.799,335.771 		"/>
		<polygon style="&st10;" points="151.886,374.501 183.167,352.488 181.336,348.795 		"/>
		<path style="&st10;" d="M330.274,292.375c0.592-0.213,3.5,6.875,3.5,6.875l24.052-6.125
			C356.774,292.125,336.774,289.75,330.274,292.375z"/>
		<path style="&st10;" d="M330.715,264.467l-13.453-5.207c-7.308,7.981-93.721,19.25-93.721,19.25
			c-48.925,2.448-91.303-25.225-91.303-25.225l-16.124,10.182C115.108,265.647,71,279.711,71,279.711v0.436
			c1,4.797,48.841-5.342,48.841-5.342l29.794,0.824c4.829,10.489,31.609,37.46,73.393,41.179s89.762-37.806,90.986-38.298
			c1.224-0.492,12.977-2.705,12.977-2.705S375,285.944,376,281.147v-0.436C376,280.711,331.721,266.647,330.715,264.467z"/>
		<path style="&st10;" d="M346.997,239.392c0,0,4.943,5.619,5.468,6.368c0.28-1.01,27.228-11.594,26.693-16.944
			C379.159,228.816,362.171,235.746,346.997,239.392z"/>
		<path style="&st10;" d="M352.465,245.76c-0.005,0.019-0.021,0.042-0.006,0.054C352.541,245.884,352.529,245.85,352.465,245.76z"/>
		<path style="&st10;" d="M329.274,322.283c-0.473,0,0.977,7.501,0.977,7.501l17.575,1.719
			C347.68,331.064,329.747,322.283,329.274,322.283z"/>
		<polygon style="&st10;" points="299.07,334.893 335.434,353.459 312.171,333.256 		"/>
		<polygon style="&st10;" points="267.377,350.644 299.764,371.501 276.538,351.229 		"/>
	</g>
	<path style="&st11;" d="M156.381,278.51c0,0,26.786,5.51,40.601,6.144c12.741,0.585,38.634,0.583,53.524,0.191
		c14.89-0.392,30.988-2.606,38.634-5.624c0,0-11.067,16.902-62.78,15.695C174.647,293.709,160.652,283.742,156.381,278.51z"/>
	<path style="&st12;" d="M154.358,74.125l12.498-3.964c0,0-4.731-5.844-6.599-7.404c-0.179-0.07-2.446-1.127-3.498,2.399
		L154.358,74.125z"/>
	<path style="&st12;" d="M294.383,74.125l-12.498-3.964c0,0,4.731-5.844,6.599-7.404c0.18-0.07,2.446-1.127,3.498,2.399
		L294.383,74.125z"/>
</g>
<g id="レイヤー_3">
	<path style="&st17;" d="M379.859,590.433c-2.729-4.706-1.188-13.865-3.82-16.852c-2.632-2.987-5.457-4.09-14.278-9.403
		c-8.822-5.313-2.638-3.964-9.733-14.418c-7.094-10.454-6.003-6.463-31.651-16.179c-2.872-1.088-5.186-1.963-7.055-2.67
		c2.135-5.085,1.362-10.818-5.665-13.829c-2.295-1.373-5.219-0.098-12.018,1.564c-6.637,1.622-8.28-4.661-9.972-6.95
		c-2.568-3.475-6.043-3.475-6.043-3.475c-0.226,0.075-3.921,0.038-7.619,1.544c-2.524-0.792-4.606-0.651-10.635-1.544
		c-10.581-1.568-6.477,1.788-21.692,10.779c-0.447,0.264-0.882,0.511-1.309,0.747c-0.681-2.107-1.741-4.122-3.287-5.87
		c-0.69-0.78-4.086-6.847-17.78-2.65c0,0-4.174,3.141-9.234,5.45c-5.314-1.548-14.38-3.364-34.07-4.484
		c-6.769-0.385-10.889-0.523-13.304-0.455c-0.009-0.013-0.018-0.029-0.027-0.041c-2.568-3.475-6.043-3.475-6.043-3.475
		c-0.45,0.15-14.598-0.14-15.241,12.132c-4.534-0.733-8.547-1.736-11.64-1.354c-6.791,0.839-9.823,3.015-24.557,14.082
		c-14.734,11.067-11.46,4.213-15.825,11.694c-0.572,0.981-1.451,2.754-2.54,5.086c-1.861,0.176-4.016,0.598-6.519,1.364
		c0,0-6.736,5.08-13.473,7.068c-6.736,1.988-13.694,12.81-3.313,20.872c0,0,3.501,4.211,7.098,8.368
		c-4.2,10.199-7.352,18.183-7.144,18.286c112.171,55.975,325.161-0.859,327.383-1.879S382.588,595.139,379.859,590.433z"/>
	<g>
		<path style="&st18;" d="M128.227,557.181c0.39-0.966,4.3-6.715-5.573-17.091c0,0-7.555-3.757-12.343-8.895
			c-4.788-5.138-17.579-6.527-20.153,6.362c0,0-4.795,10.913-7.02,16.838c-2.225,5.925,2.212,23.46,14.61,20.354
			c0,0,8.582-5.274,14.219-5.991S125.36,564.292,128.227,557.181z"/>
		<path style="&st19;" d="M104.926,529.868c-0.709-0.374-9.942,18.853,18.007,13.182
			C122.127,541.884,109.572,532.316,104.926,529.868z"/>
		<path style="&st19;" d="M127.269,559.141c0,0-9.186,9.178-13.397,9.27c-4.211,0.092-19.93,6.644-19.93,6.644
			s-18.247-5.616-7.438-28.988c0,0,0.576,12.649,4.23,16.378c3.654,3.729,11.76-5.156,16.78-7.215
			c5.019-2.059,17.384,3.413,19.183,4.821"/>
	</g>
	<g>
		<path style="&st18;" d="M345.405,554.477c0.39-0.966,4.3-6.715-5.573-17.091c0,0-7.555-3.757-12.343-8.895
			c-4.788-5.138-17.579-6.527-20.153,6.362c0,0-4.795,10.913-7.02,16.838c-2.225,5.926,2.212,23.46,14.61,20.354
			c0,0,8.582-5.274,14.219-5.991C334.781,565.337,342.537,561.587,345.405,554.477z"/>
		<path style="&st19;" d="M322.104,527.163c-0.709-0.374-9.942,18.853,18.007,13.182
			C339.305,539.179,326.749,529.612,322.104,527.163z"/>
		<path style="&st19;" d="M344.446,556.436c0,0-9.186,9.178-13.397,9.27c-4.211,0.092-19.93,6.644-19.93,6.644
			s-18.247-5.616-7.438-28.988c0,0,0.576,12.649,4.23,16.378c3.654,3.729,11.76-5.156,16.78-7.215
			c5.019-2.059,17.384,3.413,19.183,4.821"/>
	</g>
	<path style="&st18;" d="M95.467,561.31c-0.463-0.116-12.406-8.083-19.526,2.249c0,0-2.435,3.823-1.107,11.297
		c0,0,0.206,3.894-3.282,5.433c-3.489,1.539-13.526,6.609-9.383,16.415c4.143,9.805,15.42,5.883,19.06,3.545
		s9.003-2.834,15.18,0.356c8.221,4.246,26.558-4.125,17.941-16.759c-1.198-2.391-4.349-2.887-10.976-5.138
		c-6.469-2.198-4.478-8.38-4.675-11.219C98.398,563.177,95.467,561.31,95.467,561.31z"/>
	<path style="&st18;" d="M144.696,557.502c-0.463-0.116-12.406-8.083-19.526,2.249c0,0-2.435,3.823-1.107,11.297
		c0,0,0.206,3.894-3.282,5.433c-3.489,1.539-13.526,6.609-9.383,16.415c4.143,9.805,15.42,5.883,19.06,3.545
		c3.64-2.339,9.003-2.834,15.18,0.356c8.221,4.246,26.558-4.125,17.941-16.759c-1.198-2.391-4.349-2.887-10.976-5.138
		c-6.469-2.198-4.478-8.38-4.675-11.219C147.627,559.37,144.696,557.502,144.696,557.502z"/>
	<g>
		<path style="&st18;" d="M264.111,575.914c0.39-0.966,4.3-6.715-5.573-17.091c0,0-7.555-3.757-12.343-8.895
			c-4.788-5.138-17.579-6.527-20.153,6.362c0,0-4.795,10.913-7.02,16.838c-2.225,5.926,2.212,23.46,14.61,20.354
			c0,0,8.582-5.274,14.219-5.991C253.488,586.774,261.244,583.024,264.111,575.914z"/>
		<path style="&st19;" d="M240.81,548.6c-0.709-0.374-9.942,18.853,18.007,13.182C258.011,560.617,245.456,551.049,240.81,548.6z"/>
		<path style="&st19;" d="M263.153,577.873c0,0-9.186,9.178-13.397,9.27s-19.93,6.644-19.93,6.644s-18.247-5.616-7.438-28.988
			c0,0,0.576,12.649,4.23,16.378c3.654,3.729,11.76-5.156,16.78-7.215c5.019-2.059,17.384,3.413,19.183,4.821"/>
	</g>
	<path style="&st18;" d="M180.577,577.602c-0.463-0.116-12.406-8.083-19.526,2.249c0,0-2.436,3.823-1.107,11.297
		c0,0,0.206,3.894-3.282,5.433c-3.489,1.539-13.526,6.609-9.383,16.415c4.143,9.805,15.42,5.883,19.06,3.545
		s9.003-2.834,15.18,0.356c8.221,4.246,26.558-4.125,17.941-16.759c-1.198-2.391-4.349-2.887-10.976-5.138
		c-6.469-2.198-4.478-8.38-4.675-11.219C183.507,579.469,180.577,577.602,180.577,577.602z"/>
	<path style="&st18;" d="M182.818,557.502c-0.463-0.116-12.406-8.083-19.526,2.249c0,0-2.436,3.823-1.107,11.297
		c0,0,0.206,3.894-3.282,5.433c-3.489,1.539-13.526,6.609-9.383,16.415c4.143,9.805,15.42,5.883,19.06,3.545
		c3.64-2.339,9.003-2.834,15.18,0.356c8.221,4.246,26.558-4.125,17.941-16.759c-1.198-2.391-4.349-2.887-10.976-5.138
		c-6.469-2.198-4.478-8.38-4.675-11.219C185.749,559.37,182.818,557.502,182.818,557.502z"/>
	<path style="&st18;" d="M326.695,577.602c-0.463-0.116-12.406-8.083-19.526,2.249c0,0-2.435,3.823-1.107,11.297
		c0,0,0.206,3.894-3.282,5.433c-3.489,1.539-13.526,6.609-9.383,16.415c4.143,9.805,15.42,5.883,19.06,3.545
		s9.003-2.834,15.18,0.356c8.221,4.246,26.558-4.125,17.941-16.759c-1.198-2.391-4.349-2.887-10.976-5.138
		c-6.469-2.198-4.478-8.38-4.675-11.219C329.625,579.469,326.695,577.602,326.695,577.602z"/>
	<path style="&st18;" d="M230.094,522.531c-0.347-0.328-6.863-13.121-18.129-7.595c0,0-3.995,2.142-6.494,9.31
		c0,0-1.726,3.496-5.521,3.131s-15.03-0.856-16.216,9.722c-1.186,10.579,10.568,12.677,14.886,12.419
		c4.319-0.258,9.239,1.935,13.063,7.739c5.091,7.726,25.179,9.401,23.847-5.834c0.126-2.672-2.38-4.646-7.057-9.853
		c-4.566-5.083,0.196-9.499,1.414-12.072C231.736,525.593,230.094,522.531,230.094,522.531z"/>
	<path style="&st18;" d="M254.375,510.603c-0.359,0.315-13.704,5.607-9.255,17.34c0,0,1.759,4.177,8.663,7.335
		c0,0,3.32,2.045,2.602,5.79c-0.718,3.745-2.256,14.885,8.165,17.053c10.422,2.169,13.609-9.338,13.755-13.661
		c0.146-4.324,2.789-9.018,8.926-12.283c8.168-4.347,11.711-24.191-3.581-24.288c-2.648-0.375-4.848,1.936-10.469,6.106
		c-5.487,4.071-9.44-1.082-11.887-2.535C257.577,509.254,254.375,510.603,254.375,510.603z"/>
	<path style="&st18;" d="M266.115,557.193c-0.473,0.066-14.53-2.852-17.265,9.395c0,0-0.828,4.456,3.202,10.89
		c0,0,1.649,3.533-1.01,6.267c-2.659,2.733-10.069,11.192-2.557,18.734s16.501-0.316,19.001-3.848s7.288-5.998,14.209-5.352
		c9.213,0.86,23.083-13.767,10.363-22.256c-2.006-1.769-5.114-1.049-12.102-0.656c-6.822,0.383-7.29-6.094-8.535-8.654
		C269.531,557.828,266.115,557.193,266.115,557.193z"/>
	<path style="&st18;" d="M137.5,524.5c-0.473,0.066-14.53-2.852-17.265,9.395c0,0-0.828,4.456,3.202,10.89
		c0,0,1.649,3.533-1.01,6.266s-10.069,11.192-2.557,18.734c7.512,7.542,16.501-0.316,19.001-3.848
		c2.5-3.531,7.288-5.998,14.209-5.352c9.213,0.86,23.083-13.767,10.363-22.256c-2.006-1.769-5.114-1.049-12.102-0.656
		c-6.822,0.383-7.29-6.094-8.535-8.654C140.917,525.135,137.5,524.5,137.5,524.5z"/>
	<path style="&st18;" d="M253.736,597.441c-0.473,0.066-14.53-2.852-17.265,9.395c0,0-0.828,4.456,3.202,10.89
		c0,0,1.649,3.533-1.01,6.266c-2.659,2.733-10.069,11.192-2.557,18.734c7.512,7.542,16.501-0.316,19.001-3.848
		c2.5-3.531,7.288-5.998,14.209-5.352c9.213,0.86,23.083-13.767,10.363-22.256c-2.006-1.769-5.114-1.049-12.102-0.656
		c-6.822,0.383-7.29-6.094-8.535-8.654C257.153,598.075,253.736,597.441,253.736,597.441z"/>
	<path style="&st18;" d="M323.653,554.325c-0.359,0.315-13.704,5.607-9.255,17.34c0,0,1.759,4.177,8.663,7.336
		c0,0,3.32,2.044,2.602,5.789s-2.256,14.885,8.165,17.053c10.422,2.169,13.609-9.338,13.755-13.661
		c0.146-4.324,2.789-9.018,8.926-12.283c8.168-4.347,11.711-24.191-3.581-24.288c-2.648-0.375-4.848,1.936-10.469,6.106
		c-5.487,4.071-9.44-1.082-11.887-2.535C326.855,552.977,323.653,554.325,323.653,554.325z"/>
	<path style="&st18;" d="M342.976,579.596c-0.359,0.315-13.704,5.607-9.255,17.34c0,0,1.759,4.177,8.663,7.336
		c0,0,3.32,2.044,2.602,5.789s-2.256,14.885,8.165,17.053c10.422,2.169,13.609-9.338,13.755-13.661
		c0.146-4.324,2.789-9.018,8.926-12.283c8.168-4.347,11.711-24.191-3.581-24.288c-2.648-0.375-4.848,1.936-10.469,6.106
		c-5.487,4.071-9.44-1.082-11.887-2.535C346.178,578.247,342.976,579.596,342.976,579.596z"/>
	<g>
		<path style="&st18;" d="M186.841,501.251c-0.69-0.78-4.086-6.847-17.78-2.65c0,0-6.736,5.08-13.473,7.068
			c-6.736,1.988-13.694,12.81-3.313,20.872c0,0,7.62,9.166,11.927,13.804c4.307,4.638,21.976,8.503,24.737-3.976
			c0,0-0.883-10.034,0.994-15.398C191.81,515.607,191.921,506.993,186.841,501.251z"/>
		<path style="&st19;" d="M151.994,509.892c-0.651,0.467,12.424,17.318,19.839-10.22C170.43,499.873,156.26,506.83,151.994,509.892z
			"/>
		<path style="&st19;" d="M188.165,502.984c0,0,4.107,12.319,2.307,16.127c-1.8,3.808-2.961,20.799-2.961,20.799
			s-13.177,13.815-29.257-6.298c0,0,11.574,5.136,16.542,3.533c4.969-1.603,0.642-12.825,1.043-18.235s10.821-14.027,12.884-15.007"
			/>
	</g>
	<g>
		<path style="&st18;" d="M307.64,538.154c-0.66-0.806-3.821-6.998-17.665-3.329c0,0-6.926,4.818-13.734,6.547
			c-6.808,1.728-14.174,12.277-4.11,20.73c0,0,7.263,9.451,11.39,14.251c4.126,4.8,21.635,9.339,24.871-3.026
			c0,0-0.499-10.06,1.583-15.348C312.056,552.69,312.497,544.087,307.64,538.154z"/>
		<path style="&st19;" d="M272.488,545.455c-0.669,0.442,11.752,17.781,20.215-9.453
			C291.294,536.149,276.869,542.559,272.488,545.455z"/>
		<path style="&st19;" d="M308.898,539.936c0,0,3.632,12.467,1.688,16.204s-3.755,20.67-3.755,20.67s-13.696,13.3-28.994-7.413
			c0,0,11.369,5.576,16.395,4.164c5.026-1.412,1.133-12.791,1.741-18.182c0.608-5.391,11.35-13.603,13.449-14.503"/>
	</g>
	<g>
		<path style="&st18;" d="M137.031,598.861c0.39-0.966,4.3-6.715-5.573-17.091c0,0-7.555-3.757-12.343-8.895
			s-17.579-6.527-20.153,6.362c0,0-4.795,10.913-7.02,16.838c-2.225,5.925,2.212,23.46,14.61,20.354c0,0,8.582-5.274,14.219-5.991
			C126.408,609.721,134.163,605.971,137.031,598.861z"/>
		<path style="&st19;" d="M113.73,571.548c-0.709-0.374-9.942,18.853,18.007,13.182C130.931,583.564,118.375,573.996,113.73,571.548
			z"/>
		<path style="&st19;" d="M136.072,600.82c0,0-9.186,9.178-13.397,9.27s-19.93,6.644-19.93,6.644s-18.247-5.616-7.438-28.988
			c0,0,0.576,12.649,4.23,16.378c3.654,3.729,11.76-5.156,16.78-7.215c5.019-2.059,17.384,3.413,19.183,4.821"/>
	</g>
	<g>
		<path style="&st18;" d="M211.153,630.94c1.039,0.072,7.715,2.013,14.53-10.585c0,0,1.237-8.346,4.643-14.489
			c3.406-6.143,0.771-18.736-12.282-17.198c0,0-11.861-1.186-18.184-1.47c-6.323-0.284-21.626,9.358-14.839,20.187
			c0,0,7.669,6.531,10.094,11.67C197.54,624.195,203.504,630.411,211.153,630.94z"/>
		<path style="&st19;" d="M229.923,600.335c0.136-0.79-21.003-3.625-6.968,21.201C223.814,620.409,229.03,605.51,229.923,600.335z"
			/>
		<path style="&st19;" d="M208.993,630.634c0,0-11.569-5.897-12.958-9.874s-12.481-16.899-12.481-16.899
			s-0.301-19.089,25.267-16.037c0,0-11.851,4.459-14.267,9.087c-2.416,4.628,8.54,9.59,12.05,13.727
			c3.51,4.137,2.13,17.588,1.347,19.733"/>
	</g>
	<path style="&st20;" d="M39,698c0,0-38.429-1.5-33.465-25c0,0,36.465-69.5,37.965-70s6.481-6.168,18.49-0.168
		C72.343,608.005,121.704,619,200.464,620c0,0,155.165,2.774,178.546-17.168c12.01-6,16.99-0.416,18.49,0.084
		s37.965,70.042,37.965,70.042c4.965,23.5-33.465,25.021-33.465,25.021L39,698z"/>
	<path style="&st21;" d="M251,622.774c126.481-4.1,142.435-21.7,142.435-21.7l-5.455-5.569l-5.97,4.939
		c-35.073,11.129-89.802,14.679-131.01,15.654v-0.043c0,0-10.958,0.368-28,0.37c-17.042-0.002-28-0.37-28-0.37v0.043
		c-41.208-0.975-95.937-4.525-131.01-15.654l-5.97-4.939l-5.455,5.569c0,0,15.954,17.6,142.435,21.7"/>
</g>
<g id="レイヤー_1">
</g>
</svg>
